<mxfile host="app.diagrams.net" modified="2023-06-07T10:35:05.924Z" agent="Mozilla/5.0 (Windows NT 10.0; Win64; x64) AppleWebKit/537.36 (KHTML, like Gecko) Chrome/114.0.0.0 Safari/537.36" etag="vBwS0BcKfICZiO9AEdns" version="21.3.7" type="github" pages="2">
  <diagram id="C5RBs43oDa-KdzZeNtuy" name="회원가입">
    <mxGraphModel dx="1433" dy="790" grid="1" gridSize="10" guides="1" tooltips="1" connect="1" arrows="1" fold="1" page="1" pageScale="1" pageWidth="827" pageHeight="1169" math="0" shadow="0">
      <root>
        <mxCell id="WIyWlLk6GJQsqaUBKTNV-0" />
        <mxCell id="WIyWlLk6GJQsqaUBKTNV-1" parent="WIyWlLk6GJQsqaUBKTNV-0" />
        <mxCell id="PaWWPeKELftF8dxafA3T-62" style="edgeStyle=orthogonalEdgeStyle;rounded=0;orthogonalLoop=1;jettySize=auto;html=1;entryX=0.5;entryY=0;entryDx=0;entryDy=0;" edge="1" parent="WIyWlLk6GJQsqaUBKTNV-1" source="PaWWPeKELftF8dxafA3T-60" target="PaWWPeKELftF8dxafA3T-61">
          <mxGeometry relative="1" as="geometry" />
        </mxCell>
        <mxCell id="PaWWPeKELftF8dxafA3T-60" value="회원가입" style="rounded=1;whiteSpace=wrap;html=1;" vertex="1" parent="WIyWlLk6GJQsqaUBKTNV-1">
          <mxGeometry x="530" y="110" width="120" height="60" as="geometry" />
        </mxCell>
        <mxCell id="PaWWPeKELftF8dxafA3T-86" value="No" style="edgeStyle=orthogonalEdgeStyle;rounded=0;orthogonalLoop=1;jettySize=auto;html=1;entryX=0.975;entryY=0.5;entryDx=0;entryDy=0;entryPerimeter=0;" edge="1" parent="WIyWlLk6GJQsqaUBKTNV-1" source="PaWWPeKELftF8dxafA3T-61" target="PaWWPeKELftF8dxafA3T-65">
          <mxGeometry relative="1" as="geometry" />
        </mxCell>
        <mxCell id="PaWWPeKELftF8dxafA3T-88" value="Yes" style="edgeStyle=orthogonalEdgeStyle;rounded=0;orthogonalLoop=1;jettySize=auto;html=1;entryX=0.5;entryY=0;entryDx=0;entryDy=0;" edge="1" parent="WIyWlLk6GJQsqaUBKTNV-1" source="PaWWPeKELftF8dxafA3T-61" target="PaWWPeKELftF8dxafA3T-63">
          <mxGeometry relative="1" as="geometry" />
        </mxCell>
        <mxCell id="PaWWPeKELftF8dxafA3T-61" value="회원유무" style="rhombus;whiteSpace=wrap;html=1;" vertex="1" parent="WIyWlLk6GJQsqaUBKTNV-1">
          <mxGeometry x="535" y="230" width="110" height="80" as="geometry" />
        </mxCell>
        <mxCell id="PaWWPeKELftF8dxafA3T-92" style="edgeStyle=orthogonalEdgeStyle;rounded=0;orthogonalLoop=1;jettySize=auto;html=1;entryX=0.5;entryY=0;entryDx=0;entryDy=0;" edge="1" parent="WIyWlLk6GJQsqaUBKTNV-1" source="PaWWPeKELftF8dxafA3T-63" target="PaWWPeKELftF8dxafA3T-67">
          <mxGeometry relative="1" as="geometry" />
        </mxCell>
        <mxCell id="PaWWPeKELftF8dxafA3T-63" value="로그인" style="rounded=1;whiteSpace=wrap;html=1;" vertex="1" parent="WIyWlLk6GJQsqaUBKTNV-1">
          <mxGeometry x="530" y="470" width="120" height="60" as="geometry" />
        </mxCell>
        <mxCell id="PaWWPeKELftF8dxafA3T-97" style="edgeStyle=orthogonalEdgeStyle;rounded=0;orthogonalLoop=1;jettySize=auto;html=1;entryX=0.5;entryY=0;entryDx=0;entryDy=0;" edge="1" parent="WIyWlLk6GJQsqaUBKTNV-1" source="PaWWPeKELftF8dxafA3T-65" target="PaWWPeKELftF8dxafA3T-96">
          <mxGeometry relative="1" as="geometry" />
        </mxCell>
        <mxCell id="PaWWPeKELftF8dxafA3T-65" value="회원정보 입력" style="shape=parallelogram;perimeter=parallelogramPerimeter;whiteSpace=wrap;html=1;fixedSize=1;" vertex="1" parent="WIyWlLk6GJQsqaUBKTNV-1">
          <mxGeometry x="300" y="240" width="120" height="60" as="geometry" />
        </mxCell>
        <mxCell id="PaWWPeKELftF8dxafA3T-94" value="No" style="edgeStyle=orthogonalEdgeStyle;rounded=0;orthogonalLoop=1;jettySize=auto;html=1;entryX=1;entryY=0.5;entryDx=0;entryDy=0;" edge="1" parent="WIyWlLk6GJQsqaUBKTNV-1" source="PaWWPeKELftF8dxafA3T-67" target="PaWWPeKELftF8dxafA3T-63">
          <mxGeometry relative="1" as="geometry">
            <mxPoint x="740" y="620" as="targetPoint" />
            <Array as="points">
              <mxPoint x="590" y="760" />
              <mxPoint x="750" y="760" />
              <mxPoint x="750" y="500" />
            </Array>
          </mxGeometry>
        </mxCell>
        <mxCell id="PaWWPeKELftF8dxafA3T-103" value="Yes" style="edgeStyle=orthogonalEdgeStyle;rounded=0;orthogonalLoop=1;jettySize=auto;html=1;entryX=0.5;entryY=0;entryDx=0;entryDy=0;" edge="1" parent="WIyWlLk6GJQsqaUBKTNV-1" source="PaWWPeKELftF8dxafA3T-67" target="PaWWPeKELftF8dxafA3T-70">
          <mxGeometry relative="1" as="geometry" />
        </mxCell>
        <mxCell id="PaWWPeKELftF8dxafA3T-67" value="ID/PW체크" style="rhombus;whiteSpace=wrap;html=1;" vertex="1" parent="WIyWlLk6GJQsqaUBKTNV-1">
          <mxGeometry x="535" y="590" width="110" height="80" as="geometry" />
        </mxCell>
        <mxCell id="PaWWPeKELftF8dxafA3T-70" value="Main page" style="rounded=1;whiteSpace=wrap;html=1;" vertex="1" parent="WIyWlLk6GJQsqaUBKTNV-1">
          <mxGeometry x="530" y="750" width="120" height="60" as="geometry" />
        </mxCell>
        <mxCell id="PaWWPeKELftF8dxafA3T-102" style="edgeStyle=orthogonalEdgeStyle;rounded=0;orthogonalLoop=1;jettySize=auto;html=1;entryX=0;entryY=0.5;entryDx=0;entryDy=0;" edge="1" parent="WIyWlLk6GJQsqaUBKTNV-1" source="PaWWPeKELftF8dxafA3T-71" target="PaWWPeKELftF8dxafA3T-63">
          <mxGeometry relative="1" as="geometry" />
        </mxCell>
        <mxCell id="PaWWPeKELftF8dxafA3T-71" value="회원가입 성공" style="rounded=1;whiteSpace=wrap;html=1;" vertex="1" parent="WIyWlLk6GJQsqaUBKTNV-1">
          <mxGeometry x="297.5" y="470" width="125" height="60" as="geometry" />
        </mxCell>
        <mxCell id="PaWWPeKELftF8dxafA3T-72" value="필수 정보 유효성 체크" style="swimlane;fontStyle=0;childLayout=stackLayout;horizontal=1;startSize=30;horizontalStack=0;resizeParent=1;resizeParentMax=0;resizeLast=0;collapsible=1;marginBottom=0;whiteSpace=wrap;html=1;" vertex="1" parent="WIyWlLk6GJQsqaUBKTNV-1">
          <mxGeometry x="30" y="160" width="140" height="240" as="geometry" />
        </mxCell>
        <mxCell id="PaWWPeKELftF8dxafA3T-73" value="아이디 중복 체크" style="text;strokeColor=none;fillColor=none;align=left;verticalAlign=middle;spacingLeft=4;spacingRight=4;overflow=hidden;points=[[0,0.5],[1,0.5]];portConstraint=eastwest;rotatable=0;whiteSpace=wrap;html=1;" vertex="1" parent="PaWWPeKELftF8dxafA3T-72">
          <mxGeometry y="30" width="140" height="30" as="geometry" />
        </mxCell>
        <mxCell id="PaWWPeKELftF8dxafA3T-74" value="비밀번호 규칙 체크" style="text;strokeColor=none;fillColor=none;align=left;verticalAlign=middle;spacingLeft=4;spacingRight=4;overflow=hidden;points=[[0,0.5],[1,0.5]];portConstraint=eastwest;rotatable=0;whiteSpace=wrap;html=1;" vertex="1" parent="PaWWPeKELftF8dxafA3T-72">
          <mxGeometry y="60" width="140" height="30" as="geometry" />
        </mxCell>
        <mxCell id="PaWWPeKELftF8dxafA3T-75" value="비밀번호 재확인 체크" style="text;strokeColor=none;fillColor=none;align=left;verticalAlign=middle;spacingLeft=4;spacingRight=4;overflow=hidden;points=[[0,0.5],[1,0.5]];portConstraint=eastwest;rotatable=0;whiteSpace=wrap;html=1;" vertex="1" parent="PaWWPeKELftF8dxafA3T-72">
          <mxGeometry y="90" width="140" height="30" as="geometry" />
        </mxCell>
        <mxCell id="PaWWPeKELftF8dxafA3T-81" value="성별 입력 체크" style="text;strokeColor=none;fillColor=none;align=left;verticalAlign=middle;spacingLeft=4;spacingRight=4;overflow=hidden;points=[[0,0.5],[1,0.5]];portConstraint=eastwest;rotatable=0;whiteSpace=wrap;html=1;" vertex="1" parent="PaWWPeKELftF8dxafA3T-72">
          <mxGeometry y="120" width="140" height="30" as="geometry" />
        </mxCell>
        <mxCell id="PaWWPeKELftF8dxafA3T-82" value="이메일 양식 체크" style="text;strokeColor=none;fillColor=none;align=left;verticalAlign=middle;spacingLeft=4;spacingRight=4;overflow=hidden;points=[[0,0.5],[1,0.5]];portConstraint=eastwest;rotatable=0;whiteSpace=wrap;html=1;" vertex="1" parent="PaWWPeKELftF8dxafA3T-72">
          <mxGeometry y="150" width="140" height="30" as="geometry" />
        </mxCell>
        <mxCell id="PaWWPeKELftF8dxafA3T-83" value="이메일 인증 체크" style="text;strokeColor=none;fillColor=none;align=left;verticalAlign=middle;spacingLeft=4;spacingRight=4;overflow=hidden;points=[[0,0.5],[1,0.5]];portConstraint=eastwest;rotatable=0;whiteSpace=wrap;html=1;" vertex="1" parent="PaWWPeKELftF8dxafA3T-72">
          <mxGeometry y="180" width="140" height="30" as="geometry" />
        </mxCell>
        <mxCell id="PaWWPeKELftF8dxafA3T-84" value="생년월일 입력 체크" style="text;strokeColor=none;fillColor=none;align=left;verticalAlign=middle;spacingLeft=4;spacingRight=4;overflow=hidden;points=[[0,0.5],[1,0.5]];portConstraint=eastwest;rotatable=0;whiteSpace=wrap;html=1;" vertex="1" parent="PaWWPeKELftF8dxafA3T-72">
          <mxGeometry y="210" width="140" height="30" as="geometry" />
        </mxCell>
        <mxCell id="PaWWPeKELftF8dxafA3T-85" value="" style="endArrow=none;dashed=1;html=1;dashPattern=1 3;strokeWidth=2;rounded=0;" edge="1" parent="WIyWlLk6GJQsqaUBKTNV-1">
          <mxGeometry width="50" height="50" relative="1" as="geometry">
            <mxPoint x="190" y="250" as="sourcePoint" />
            <mxPoint x="290" y="250" as="targetPoint" />
          </mxGeometry>
        </mxCell>
        <mxCell id="PaWWPeKELftF8dxafA3T-98" value="Yes" style="edgeStyle=orthogonalEdgeStyle;rounded=0;orthogonalLoop=1;jettySize=auto;html=1;entryX=0.5;entryY=0;entryDx=0;entryDy=0;" edge="1" parent="WIyWlLk6GJQsqaUBKTNV-1" source="PaWWPeKELftF8dxafA3T-96" target="PaWWPeKELftF8dxafA3T-71">
          <mxGeometry relative="1" as="geometry" />
        </mxCell>
        <mxCell id="PaWWPeKELftF8dxafA3T-105" value="No" style="edgeStyle=orthogonalEdgeStyle;rounded=0;orthogonalLoop=1;jettySize=auto;html=1;entryX=0;entryY=0.5;entryDx=0;entryDy=0;" edge="1" parent="WIyWlLk6GJQsqaUBKTNV-1" source="PaWWPeKELftF8dxafA3T-96" target="PaWWPeKELftF8dxafA3T-65">
          <mxGeometry relative="1" as="geometry">
            <mxPoint x="230" y="250" as="targetPoint" />
            <Array as="points">
              <mxPoint x="220" y="380" />
              <mxPoint x="220" y="270" />
            </Array>
          </mxGeometry>
        </mxCell>
        <mxCell id="PaWWPeKELftF8dxafA3T-96" value="데이터 유효성 체크" style="rhombus;whiteSpace=wrap;html=1;" vertex="1" parent="WIyWlLk6GJQsqaUBKTNV-1">
          <mxGeometry x="305" y="340" width="110" height="80" as="geometry" />
        </mxCell>
      </root>
    </mxGraphModel>
  </diagram>
  <diagram id="sFlOk9F_lhu9lTv2fZgN" name="예약">
    <mxGraphModel dx="1433" dy="790" grid="1" gridSize="10" guides="1" tooltips="1" connect="1" arrows="1" fold="1" page="1" pageScale="1" pageWidth="827" pageHeight="1169" math="0" shadow="0">
      <root>
        <mxCell id="0" />
        <mxCell id="1" parent="0" />
        <mxCell id="Atn3IEAnxErqcg-ZlCAv-5" style="edgeStyle=orthogonalEdgeStyle;rounded=0;orthogonalLoop=1;jettySize=auto;html=1;entryX=0.5;entryY=0;entryDx=0;entryDy=0;" edge="1" parent="1" source="li8C1skpqKrMGlg456UK-1" target="dppWFRpQjHDhVPYLuiVJ-1">
          <mxGeometry relative="1" as="geometry" />
        </mxCell>
        <mxCell id="li8C1skpqKrMGlg456UK-1" value="항공편 검색" style="rounded=1;whiteSpace=wrap;html=1;" vertex="1" parent="1">
          <mxGeometry x="320" y="100" width="120" height="60" as="geometry" />
        </mxCell>
        <mxCell id="Atn3IEAnxErqcg-ZlCAv-4" style="edgeStyle=orthogonalEdgeStyle;rounded=0;orthogonalLoop=1;jettySize=auto;html=1;entryX=0.5;entryY=0;entryDx=0;entryDy=0;" edge="1" parent="1" source="dppWFRpQjHDhVPYLuiVJ-1" target="lhvXGnNh4ojZ-ImVLlv0-1">
          <mxGeometry relative="1" as="geometry" />
        </mxCell>
        <mxCell id="dppWFRpQjHDhVPYLuiVJ-1" value="검색 정보 입력" style="shape=parallelogram;perimeter=parallelogramPerimeter;whiteSpace=wrap;html=1;fixedSize=1;" vertex="1" parent="1">
          <mxGeometry x="320" y="220" width="120" height="60" as="geometry" />
        </mxCell>
        <mxCell id="Atn3IEAnxErqcg-ZlCAv-3" value="Yes" style="edgeStyle=orthogonalEdgeStyle;rounded=0;orthogonalLoop=1;jettySize=auto;html=1;entryX=0.5;entryY=0;entryDx=0;entryDy=0;" edge="1" parent="1" source="lhvXGnNh4ojZ-ImVLlv0-1" target="Atn3IEAnxErqcg-ZlCAv-2">
          <mxGeometry relative="1" as="geometry" />
        </mxCell>
        <mxCell id="Atn3IEAnxErqcg-ZlCAv-6" value="No" style="edgeStyle=orthogonalEdgeStyle;rounded=0;orthogonalLoop=1;jettySize=auto;html=1;entryX=1;entryY=0.5;entryDx=0;entryDy=0;" edge="1" parent="1" source="lhvXGnNh4ojZ-ImVLlv0-1" target="dppWFRpQjHDhVPYLuiVJ-1">
          <mxGeometry relative="1" as="geometry">
            <mxPoint x="520" y="240" as="targetPoint" />
            <Array as="points">
              <mxPoint x="530" y="370" />
              <mxPoint x="530" y="250" />
            </Array>
          </mxGeometry>
        </mxCell>
        <mxCell id="lhvXGnNh4ojZ-ImVLlv0-1" value="데이터 유효성 체크" style="rhombus;whiteSpace=wrap;html=1;" vertex="1" parent="1">
          <mxGeometry x="325" y="330" width="110" height="80" as="geometry" />
        </mxCell>
        <mxCell id="rosGxxoUgTLuKsa1NIgv-1" value="필수 정보 유효성 체크" style="swimlane;fontStyle=0;childLayout=stackLayout;horizontal=1;startSize=30;horizontalStack=0;resizeParent=1;resizeParentMax=0;resizeLast=0;collapsible=1;marginBottom=0;whiteSpace=wrap;html=1;" vertex="1" parent="1">
          <mxGeometry x="30" y="310" width="140" height="180" as="geometry" />
        </mxCell>
        <mxCell id="rosGxxoUgTLuKsa1NIgv-2" value="출발지 입력 체크" style="text;strokeColor=none;fillColor=none;align=left;verticalAlign=middle;spacingLeft=4;spacingRight=4;overflow=hidden;points=[[0,0.5],[1,0.5]];portConstraint=eastwest;rotatable=0;whiteSpace=wrap;html=1;" vertex="1" parent="rosGxxoUgTLuKsa1NIgv-1">
          <mxGeometry y="30" width="140" height="30" as="geometry" />
        </mxCell>
        <mxCell id="rosGxxoUgTLuKsa1NIgv-3" value="도착지 입력 체크" style="text;strokeColor=none;fillColor=none;align=left;verticalAlign=middle;spacingLeft=4;spacingRight=4;overflow=hidden;points=[[0,0.5],[1,0.5]];portConstraint=eastwest;rotatable=0;whiteSpace=wrap;html=1;" vertex="1" parent="rosGxxoUgTLuKsa1NIgv-1">
          <mxGeometry y="60" width="140" height="30" as="geometry" />
        </mxCell>
        <mxCell id="rosGxxoUgTLuKsa1NIgv-4" value="출발날짜 입력 체크" style="text;strokeColor=none;fillColor=none;align=left;verticalAlign=middle;spacingLeft=4;spacingRight=4;overflow=hidden;points=[[0,0.5],[1,0.5]];portConstraint=eastwest;rotatable=0;whiteSpace=wrap;html=1;" vertex="1" parent="rosGxxoUgTLuKsa1NIgv-1">
          <mxGeometry y="90" width="140" height="30" as="geometry" />
        </mxCell>
        <mxCell id="rosGxxoUgTLuKsa1NIgv-9" value="도착날짜 입력 체크" style="text;strokeColor=none;fillColor=none;align=left;verticalAlign=middle;spacingLeft=4;spacingRight=4;overflow=hidden;points=[[0,0.5],[1,0.5]];portConstraint=eastwest;rotatable=0;whiteSpace=wrap;html=1;" vertex="1" parent="rosGxxoUgTLuKsa1NIgv-1">
          <mxGeometry y="120" width="140" height="30" as="geometry" />
        </mxCell>
        <mxCell id="rosGxxoUgTLuKsa1NIgv-10" value="탑승객 인원&amp;nbsp; 체크" style="text;strokeColor=none;fillColor=none;align=left;verticalAlign=middle;spacingLeft=4;spacingRight=4;overflow=hidden;points=[[0,0.5],[1,0.5]];portConstraint=eastwest;rotatable=0;whiteSpace=wrap;html=1;" vertex="1" parent="rosGxxoUgTLuKsa1NIgv-1">
          <mxGeometry y="150" width="140" height="30" as="geometry" />
        </mxCell>
        <mxCell id="i0zJwHa1ro9WywWPuHSg-1" value="" style="endArrow=none;dashed=1;html=1;dashPattern=1 3;strokeWidth=2;rounded=0;" edge="1" parent="1">
          <mxGeometry width="50" height="50" relative="1" as="geometry">
            <mxPoint x="200" y="369.5" as="sourcePoint" />
            <mxPoint x="300" y="369.5" as="targetPoint" />
          </mxGeometry>
        </mxCell>
        <mxCell id="Atn3IEAnxErqcg-ZlCAv-9" style="edgeStyle=orthogonalEdgeStyle;rounded=0;orthogonalLoop=1;jettySize=auto;html=1;entryX=0.5;entryY=0;entryDx=0;entryDy=0;" edge="1" parent="1" source="Atn3IEAnxErqcg-ZlCAv-2" target="Atn3IEAnxErqcg-ZlCAv-8">
          <mxGeometry relative="1" as="geometry" />
        </mxCell>
        <mxCell id="Atn3IEAnxErqcg-ZlCAv-2" value="시간/좌석선택 페이지 이동" style="rounded=1;whiteSpace=wrap;html=1;" vertex="1" parent="1">
          <mxGeometry x="320" y="470" width="120" height="60" as="geometry" />
        </mxCell>
        <mxCell id="Atn3IEAnxErqcg-ZlCAv-8" value="시간/좌석 선택" style="shape=parallelogram;perimeter=parallelogramPerimeter;whiteSpace=wrap;html=1;fixedSize=1;" vertex="1" parent="1">
          <mxGeometry x="320" y="585" width="120" height="60" as="geometry" />
        </mxCell>
      </root>
    </mxGraphModel>
  </diagram>
</mxfile>
